<?xml version="1.0" encoding="utf-8"?>
<!-- Generator: Adobe Illustrator 17.0.0, SVG Export Plug-In . SVG Version: 6.00 Build 0)  -->
<!DOCTYPE svg PUBLIC "-//W3C//DTD SVG 1.1//EN" "http://www.w3.org/Graphics/SVG/1.1/DTD/svg11.dtd">
<svg version="1.1" id="Layer_1" xmlns="http://www.w3.org/2000/svg" xmlns:xlink="http://www.w3.org/1999/xlink" x="0px" y="0px"
	 width="13.494px" height="23.314px" viewBox="0 0 13.494 23.314" enable-background="new 0 0 13.494 23.314" xml:space="preserve">
<path fill="#757575" d="M9.352,11.63c-0.734-0.783-1.275-1.39-1.847-1.966C5.401,7.546,3.29,5.436,1.176,3.33
	c-0.724-0.721-1.44-1.377-0.518-2.492c0.894-1.081,1.622-0.725,2.413,0.07c3.159,3.172,6.296,6.367,9.504,9.489
	c1.197,1.165,0.684,1.931-0.259,2.86c-3.068,3.023-6.074,6.108-9.145,9.127c-0.639,0.628-1.326,1.548-2.378,0.344
	c-0.891-1.02-0.53-1.701,0.282-2.496c2.133-2.086,4.234-4.205,6.321-6.337C8.068,13.208,8.657,12.44,9.352,11.63z"/>
</svg>
