<svg id="Layer_1" data-name="Layer 1" xmlns="http://www.w3.org/2000/svg" viewBox="0 0 20.16 20.16"><defs><style>.cls-1{fill:#fff;stroke:#7fa39f;stroke-miterlimit:10;stroke-width:0.5px;}.cls-2{fill:#7fa39f;}</style></defs><circle class="cls-1" cx="10.08" cy="10.08" r="9.83"/><path class="cls-2" d="M10.33,13.62h-4A.83.83,0,0,1,5.53,13a.86.86,0,0,1,0-.16V8.2a.81.81,0,0,1,.6-.77l.21,0h8a.79.79,0,0,1,.78.6.85.85,0,0,1,0,.23V12.8a.8.8,0,0,1-.61.79.85.85,0,0,1-.23,0ZM6,8.94h8.68V8.2a.27.27,0,0,0,0-.12.33.33,0,0,0-.32-.2H6.24A.35.35,0,0,0,6,8.16v.77Zm4.33,1.43H6.05s0,0,0,0v2.4A.35.35,0,0,0,6,13a.35.35,0,0,0,.33.19h8a.5.5,0,0,0,.13,0,.33.33,0,0,0,.2-.33V10.43c0-.06,0-.06-.06-.06Z" transform="translate(-0.26 -0.26)"/></svg>