<?xml version="1.0" encoding="utf-8"?>
<!-- Generator: Adobe Illustrator 26.0.1, SVG Export Plug-In . SVG Version: 6.00 Build 0)  -->
<svg version="1.1" id="Layer_1" xmlns="http://www.w3.org/2000/svg" xmlns:xlink="http://www.w3.org/1999/xlink" x="0px" y="0px"
	 viewBox="0 0 20.68 20.68" style="enable-background:new 0 0 20.68 20.68;" xml:space="preserve">
<style type="text/css">
	.st0{fill:#FFFFFF;stroke:#7FA39F;stroke-width:0.5;stroke-miterlimit:10;}
	.st1{fill:#7FA39F;}
</style>
<g>
	<circle class="st0" cx="10.34" cy="10.34" r="10.09"/>
	<path class="st1" d="M10.33,13.71c-1.36,0-2.72,0-4.08,0c-0.43,0-0.77-0.3-0.84-0.66c-0.01-0.06-0.01-0.11-0.01-0.16
		c0-1.58,0-3.16,0-4.74c0-0.4,0.29-0.71,0.62-0.79c0.07-0.02,0.14-0.03,0.21-0.03c2.75,0,5.49,0,8.24,0c0.39,0,0.71,0.25,0.8,0.61
		c0.02,0.08,0.03,0.15,0.03,0.23c0,1.56,0,3.13,0,4.69c0,0.41-0.27,0.72-0.62,0.81c-0.08,0.02-0.16,0.03-0.24,0.03
		C13.07,13.7,11.7,13.71,10.33,13.71z M5.9,8.9c0.02,0,0.04,0,0.05,0c2.93,0,5.86,0,8.79,0c0.02,0,0.03,0,0.05,0
		c0.01,0,0.01,0,0.01-0.01c0-0.25,0-0.5,0-0.75c0-0.04-0.01-0.08-0.03-0.12c-0.07-0.14-0.18-0.2-0.33-0.2c-2.73,0-5.47,0-8.2,0
		c-0.04,0-0.07,0-0.11,0.01C6.02,7.85,5.89,7.99,5.89,8.1C5.88,8.36,5.89,8.63,5.9,8.9C5.89,8.9,5.89,8.9,5.9,8.9z M10.34,10.37
		c-1.47,0-2.94,0-4.4,0c-0.04,0-0.05,0-0.05,0.05c0,0.82,0,1.64,0,2.46c0,0.05,0.01,0.09,0.03,0.14c0.07,0.14,0.18,0.2,0.34,0.2
		c2.72,0,5.44,0,8.16,0c0.02,0,0.04,0,0.06,0c0.04-0.01,0.09-0.01,0.13-0.03c0.15-0.07,0.2-0.19,0.2-0.34c0-0.81,0-1.61,0-2.42
		c0-0.06,0-0.06-0.06-0.06C13.27,10.37,11.81,10.37,10.34,10.37z"/>
</g>
</svg>
