<?xml version="1.0" encoding="utf-8"?>
<!-- Generator: Adobe Illustrator 26.0.1, SVG Export Plug-In . SVG Version: 6.00 Build 0)  -->
<svg version="1.1" id="Layer_1" xmlns="http://www.w3.org/2000/svg" xmlns:xlink="http://www.w3.org/1999/xlink" x="0px" y="0px"
	 viewBox="0 0 19.76 19.76" style="enable-background:new 0 0 19.76 19.76;" xml:space="preserve">
<style type="text/css">
	.st0{fill:#FFFFFF;}
</style>
<path class="st0" d="M19.66,3.06c-0.04,0.16-0.14,0.28-0.25,0.4c-2.09,2.09-4.19,4.19-6.28,6.28c-0.14,0.14-0.14,0.14,0,0.28
	c2.05,2.05,4.1,4.1,6.15,6.15c0.24,0.24,0.39,0.53,0.48,0.86c0.03,0.13-0.04,0.25-0.03,0.38c-0.07,0.03-0.09,0.08-0.06,0.16
	c-0.04,0.19-0.18,0.31-0.3,0.43c-0.45,0.46-0.9,0.91-1.36,1.36c-0.23,0.22-0.51,0.33-0.81,0.39c-0.11,0.02-0.22-0.03-0.33-0.03
	c-0.03-0.07-0.08-0.09-0.16-0.06c-0.2-0.05-0.33-0.2-0.47-0.33c-2.07-2.07-4.15-4.14-6.22-6.22C9.9,13,9.85,13,9.74,13.11
	c-2.05,2.05-4.1,4.1-6.15,6.15c-0.14,0.14-0.28,0.32-0.5,0.37c-0.07,0-0.15,0-0.19,0.08c-0.18,0.03-0.37,0.06-0.55,0
	c-0.04-0.08-0.12-0.08-0.19-0.08C2,19.61,1.89,19.49,1.78,19.39c-0.43-0.42-0.84-0.85-1.28-1.27c-0.36-0.35-0.59-0.74-0.47-1.26
	c0.07-0.03,0.09-0.08,0.06-0.16c0.04-0.2,0.2-0.33,0.33-0.47c2.07-2.07,4.14-4.15,6.22-6.22c0.11-0.11,0.11-0.16,0-0.27
	C4.56,7.66,2.47,5.57,0.38,3.48C0.26,3.36,0.14,3.23,0.1,3.06C0.14,3.01,0.1,3,0.07,2.99C0.02,2.78-0.04,2.57,0.04,2.35
	C0.11,2.32,0.13,2.27,0.1,2.19c0.03-0.15,0.13-0.27,0.23-0.37C0.81,1.33,1.3,0.85,1.79,0.36C1.9,0.25,2.02,0.13,2.19,0.1
	c0.11,0,0.22,0,0.31-0.09c0.14-0.02,0.26,0.03,0.4,0.03c0.04,0.08,0.12,0.08,0.19,0.08C3.15,0.13,3.2,0.14,3.24,0.19
	c0,0.04,0.02,0.06,0.06,0.06c0.12,0.08,0.23,0.18,0.34,0.29c2.03,2.03,4.06,4.06,6.1,6.1c0.16,0.16,0.13,0.16,0.29,0
	c2.07-2.07,4.14-4.14,6.21-6.2c0.13-0.12,0.25-0.26,0.43-0.31c0.08,0,0.15,0,0.19-0.08c0.18-0.05,0.37-0.03,0.55,0
	c0.03,0.07,0.08,0.09,0.16,0.06c0.18,0.03,0.3,0.17,0.42,0.29c0.48,0.46,0.95,0.93,1.41,1.41c0.11,0.11,0.23,0.23,0.27,0.4
	c-0.03,0.07-0.01,0.12,0.06,0.15c0.03,0.2,0.05,0.39-0.03,0.58C19.66,2.97,19.62,3,19.66,3.06z"/>
</svg>
