<?xml version="1.0" encoding="utf-8"?>
<!-- Generator: Adobe Illustrator 26.0.1, SVG Export Plug-In . SVG Version: 6.00 Build 0)  -->
<svg version="1.1" id="Layer_1" xmlns="http://www.w3.org/2000/svg" xmlns:xlink="http://www.w3.org/1999/xlink" x="0px" y="0px"
	 viewBox="0 0 19.68 19.77" style="enable-background:new 0 0 19.68 19.77;" xml:space="preserve">
<style type="text/css">
	.st0{fill:#FFFFFF;}
</style>
<path class="st0" d="M16.63,7.61c-0.02,0.11-0.11,0.16-0.17,0.23c-1.62,1.62-3.24,3.24-4.86,4.86c-1.72,1.72-3.44,3.43-5.15,5.16
	c-0.16,0.16-0.24,0.21-0.43,0.02c-1.38-1.4-2.77-2.78-4.16-4.17c-0.15-0.15-0.17-0.23-0.01-0.39c3.36-3.35,6.71-6.7,10.06-10.06
	c0.16-0.16,0.24-0.15,0.39,0.01c1.38,1.4,2.78,2.78,4.17,4.17C16.52,7.49,16.58,7.55,16.63,7.61z"/>
<path class="st0" d="M15.31,0.15c0.34,0,0.57,0.13,0.77,0.33c1.05,1.05,2.11,2.1,3.16,3.16c0.48,0.48,0.47,0.95-0.01,1.43
	c-0.55,0.55-1.11,1.1-1.65,1.66c-0.14,0.15-0.23,0.19-0.39,0.02c-1.4-1.41-2.8-2.81-4.21-4.21c-0.13-0.13-0.15-0.2-0.01-0.34
	c0.59-0.57,1.17-1.16,1.75-1.74C14.89,0.28,15.09,0.15,15.31,0.15z"/>
<path class="st0" d="M1.01,14.18c1.52,1.52,3.02,3.01,4.54,4.53c-0.53,0.1-1.06,0.19-1.58,0.28c-1.2,0.21-2.39,0.42-3.59,0.63
	c-0.24,0.04-0.32,0.03-0.27-0.26C0.42,17.64,0.71,15.91,1.01,14.18z"/>
</svg>
