<?xml version="1.0" encoding="utf-8"?>
<!-- Generator: Adobe Illustrator 26.0.1, SVG Export Plug-In . SVG Version: 6.00 Build 0)  -->
<svg version="1.1" id="Layer_1" xmlns="http://www.w3.org/2000/svg" xmlns:xlink="http://www.w3.org/1999/xlink" x="0px" y="0px"
	 viewBox="0 0 19.07 17.52" style="enable-background:new 0 0 19.07 17.52;" xml:space="preserve">
<path d="M18.67,4.89c0,0.37,0,0.74,0,1.11C18.62,6,18.63,6.05,18.63,6.08c-0.16,1.18-0.64,2.24-1.3,3.22
	c-0.94,1.39-2.12,2.56-3.32,3.71c-1.44,1.38-3,2.63-4.38,4.08c-0.09,0.1-0.13,0.04-0.19-0.02c-0.85-0.89-1.77-1.7-2.69-2.53
	c-1.32-1.18-2.63-2.38-3.8-3.71c-0.89-1.02-1.7-2.11-2.17-3.4C0.32,6.17,0.26,4.9,0.72,3.63c0.97-2.68,3.9-3.88,6.5-2.93
	c0.86,0.31,1.6,0.8,2.21,1.48c0.08,0.09,0.13,0.11,0.21,0c0.16-0.2,0.35-0.37,0.55-0.53c1.41-1.13,3-1.56,4.75-1.1
	c1.85,0.48,3.03,1.69,3.55,3.53C18.57,4.35,18.57,4.63,18.67,4.89z"/>
</svg>
