<?xml version="1.0" encoding="utf-8"?>
<!-- Generator: Adobe Illustrator 26.0.1, SVG Export Plug-In . SVG Version: 6.00 Build 0)  -->
<svg version="1.1" id="Layer_1" xmlns="http://www.w3.org/2000/svg" xmlns:xlink="http://www.w3.org/1999/xlink" x="0px" y="0px"
	 viewBox="0 0 27.28 27.28" style="enable-background:new 0 0 27.28 27.28;" xml:space="preserve">
<style type="text/css">
	.st0{fill:#FFFFFF;stroke:#7FA39E;stroke-width:0.75;stroke-miterlimit:10;}
	.st1{fill:#7FA39D;}
</style>
<g>
	<circle class="st0" cx="13.64" cy="13.64" r="12.98"/>
	<g>
		<path class="st1" d="M13.24,10.94c0.7,0.01,1.43,0.29,2.06,0.85c0.08,0.07,0.1,0.11,0.01,0.19c-0.21,0.19-0.4,0.39-0.6,0.6
			c-0.05,0.05-0.08,0.07-0.15,0.01c-0.91-0.8-2.17-0.76-3.03,0.09c-1.25,1.24-2.5,2.49-3.73,3.74c-0.59,0.6-0.79,1.32-0.56,2.13
			c0.22,0.79,0.75,1.31,1.55,1.51c0.79,0.2,1.49,0,2.07-0.57c0.69-0.68,1.38-1.37,2.06-2.06c0.08-0.08,0.12-0.09,0.2,0
			c0.19,0.2,0.39,0.4,0.59,0.59c0.05,0.05,0.07,0.08,0.01,0.14c-0.71,0.71-1.41,1.44-2.14,2.13c-0.92,0.87-2.01,1.14-3.22,0.77
			c-1.22-0.38-1.97-1.23-2.22-2.48C5.91,17.48,6.22,16.5,7,15.7c1.02-1.04,2.06-2.07,3.1-3.1c0.33-0.33,0.64-0.68,1.01-0.97
			C11.69,11.17,12.38,10.94,13.24,10.94z"/>
		<path class="st1" d="M14.02,16.34c-0.69-0.01-1.43-0.3-2.05-0.87c-0.07-0.06-0.07-0.1,0-0.16c0.21-0.2,0.41-0.4,0.61-0.61
			c0.06-0.06,0.09-0.07,0.15-0.01c0.87,0.78,2.16,0.76,2.99-0.07c1.26-1.25,2.52-2.51,3.77-3.77c0.6-0.61,0.79-1.35,0.54-2.17
			c-0.25-0.81-0.81-1.32-1.65-1.49c-0.72-0.15-1.37,0.03-1.9,0.54c-0.72,0.69-1.42,1.4-2.12,2.11c-0.08,0.09-0.12,0.08-0.2,0
			c-0.19-0.2-0.39-0.4-0.59-0.59c-0.05-0.05-0.07-0.08,0-0.14c0.71-0.7,1.4-1.41,2.11-2.1c0.93-0.89,2.04-1.17,3.27-0.78
			c1.2,0.38,1.95,1.23,2.19,2.47c0.21,1.07-0.06,2.05-0.82,2.83c-1.29,1.32-2.6,2.62-3.91,3.91C15.81,16.05,15.02,16.34,14.02,16.34
			z"/>
	</g>
</g>
</svg>
