<?xml version="1.0" encoding="utf-8"?>
<!-- Generator: Adobe Illustrator 26.0.1, SVG Export Plug-In . SVG Version: 6.00 Build 0)  -->
<svg version="1.1" id="Layer_1" xmlns="http://www.w3.org/2000/svg" xmlns:xlink="http://www.w3.org/1999/xlink" x="0px" y="0px"
	 viewBox="0 0 20.96 20.64" style="enable-background:new 0 0 20.96 20.64;" xml:space="preserve">
<style type="text/css">
	.st0{fill:#010101;}
</style>
<g>
	<path class="st0" d="M8.41,4.81c0.41-0.44,0.81-0.89,1.24-1.32c0.67-0.67,1.36-1.31,2.14-1.85c0.67-0.46,1.39-0.83,2.21-0.96
		c1.17-0.2,2.27,0.02,3.29,0.59c1.49,0.84,2.48,2.08,2.93,3.74c0.27,0.99,0.09,1.94-0.3,2.86c-0.33,0.79-0.83,1.46-1.42,2.06
		c-1.19,1.2-2.37,2.4-3.57,3.58c-0.8,0.79-1.78,1.22-2.9,1.36c-1.15,0.15-2.23-0.05-3.22-0.66c-0.85-0.53-1.48-1.27-2-2.11
		c-0.09-0.15-0.25-0.31-0.24-0.46c0.01-0.15,0.22-0.26,0.34-0.39c0.39-0.39,0.79-0.78,1.17-1.18C8.18,9.98,8.2,10,8.25,10.11
		c0.24,0.51,0.51,0.99,0.9,1.41c0.91,0.98,2.25,1.26,3.54,0.76c0.49-0.19,0.91-0.46,1.28-0.84c1.05-1.07,2.13-2.11,3.17-3.19
		c1.16-1.21,1.17-3.11,0.04-4.35c-0.39-0.42-0.91-0.66-1.44-0.84c-1.08-0.37-2.05-0.11-2.94,0.55c-0.54,0.39-1,0.87-1.46,1.35
		c-0.08,0.08-0.13,0.08-0.23,0.04c-0.82-0.3-1.66-0.43-2.53-0.24C8.5,4.77,8.43,4.78,8.36,4.78C8.38,4.79,8.39,4.8,8.41,4.81z"/>
	<path class="st0" d="M12.5,10.87c-0.25-0.48-0.5-0.92-0.83-1.32c-0.67-0.82-1.52-1.26-2.58-1.2C8.24,8.39,7.47,8.68,6.85,9.29
		c-1.11,1.1-2.22,2.21-3.32,3.32c-0.69,0.7-0.93,1.56-0.83,2.52c0.07,0.72,0.35,1.38,0.88,1.89c0.49,0.47,1.1,0.76,1.76,0.88
		c1.11,0.21,2.07-0.13,2.89-0.87c0.35-0.32,0.68-0.67,1.01-1.01c0.06-0.06,0.11-0.07,0.19-0.04c0.23,0.11,0.48,0.17,0.73,0.18
		c0.58,0.03,1.17,0.07,1.75-0.04c0.05-0.01,0.1-0.05,0.17-0.02c-0.32,0.32-0.63,0.62-0.94,0.94c-0.54,0.55-1.08,1.1-1.63,1.64
		c-0.89,0.88-1.99,1.33-3.23,1.35c-2.19,0.04-3.87-0.91-5-2.78c-0.58-0.97-0.76-2.04-0.62-3.16c0.15-1.29,0.72-2.38,1.64-3.29
		c1.06-1.06,2.12-2.11,3.17-3.17C5.92,7.16,6.4,6.73,7,6.46c1.76-0.79,3.48-0.76,5.11,0.34c0.81,0.54,1.39,1.3,1.87,2.14
		c0.16,0.28,0.16,0.28-0.07,0.51C13.45,9.92,12.98,10.39,12.5,10.87z"/>
</g>
</svg>
