<?xml version="1.0" encoding="utf-8"?>
<!-- Generator: Adobe Illustrator 26.0.1, SVG Export Plug-In . SVG Version: 6.00 Build 0)  -->
<svg version="1.1" id="Layer_1" xmlns="http://www.w3.org/2000/svg" xmlns:xlink="http://www.w3.org/1999/xlink" x="0px" y="0px"
	 viewBox="0 0 20.27 20.27" style="enable-background:new 0 0 20.27 20.27;" xml:space="preserve">
<style type="text/css">
	.st0{fill:#FFFFFF;stroke:#7FA39E;stroke-width:0.75;stroke-miterlimit:10;}
	.st1{fill:#7FA39D;}
</style>
<g>
	<circle class="st0" cx="10.14" cy="10.14" r="9.76"/>
	<g>
		<path class="st1" d="M9.83,8.1c0.53,0.01,1.08,0.22,1.55,0.64c0.06,0.05,0.07,0.08,0.01,0.14c-0.16,0.14-0.3,0.3-0.45,0.45
			c-0.04,0.04-0.06,0.05-0.11,0.01c-0.68-0.6-1.63-0.57-2.28,0.07c-0.94,0.94-1.88,1.87-2.81,2.81c-0.44,0.45-0.59,0.99-0.42,1.6
			c0.17,0.6,0.57,0.98,1.17,1.13c0.59,0.15,1.12,0,1.56-0.43c0.52-0.51,1.03-1.03,1.55-1.55c0.06-0.06,0.09-0.07,0.15,0
			c0.14,0.15,0.29,0.3,0.44,0.44c0.04,0.04,0.05,0.06,0,0.11c-0.54,0.53-1.06,1.08-1.61,1.6c-0.69,0.65-1.51,0.86-2.42,0.58
			c-0.92-0.28-1.48-0.92-1.67-1.86c-0.16-0.83,0.06-1.56,0.65-2.17c0.77-0.79,1.55-1.56,2.33-2.33C7.72,9.1,7.95,8.84,8.23,8.62
			C8.66,8.28,9.18,8.1,9.83,8.1z"/>
		<path class="st1" d="M10.42,12.17c-0.52-0.01-1.07-0.23-1.54-0.65c-0.05-0.05-0.05-0.07,0-0.12c0.16-0.15,0.31-0.3,0.46-0.46
			c0.04-0.04,0.06-0.05,0.12-0.01c0.66,0.59,1.62,0.57,2.25-0.05c0.95-0.94,1.9-1.89,2.84-2.84c0.45-0.46,0.59-1.02,0.41-1.63
			c-0.18-0.61-0.61-0.99-1.24-1.12c-0.54-0.11-1.03,0.02-1.43,0.41c-0.54,0.52-1.07,1.06-1.59,1.59c-0.06,0.06-0.09,0.06-0.15,0
			c-0.14-0.15-0.29-0.3-0.44-0.44c-0.04-0.04-0.05-0.06,0-0.11c0.53-0.53,1.05-1.06,1.59-1.58c0.7-0.67,1.53-0.88,2.46-0.59
			c0.9,0.29,1.46,0.93,1.65,1.86c0.16,0.81-0.04,1.54-0.62,2.13c-0.97,0.99-1.95,1.97-2.94,2.94
			C11.76,11.95,11.17,12.17,10.42,12.17z"/>
	</g>
</g>
</svg>
