<svg width="19" height="22" viewBox="0 0 19 22" fill="none" xmlns="http://www.w3.org/2000/svg">
<g opacity="0.75" clip-path="url(#clip0_459_29)">
<path opacity="0.75" d="M-0.000115363 10.1918C-0.000115363 10.1545 -0.000115363 10.1169 -0.000115363 10.0795C0.0435161 10.0149 0.0312098 9.93794 0.0397869 9.86751C0.188395 8.65096 1.18073 7.60198 2.38824 7.38359C2.77346 7.3139 3.16149 7.31951 3.54932 7.32754C3.66772 7.32997 3.68861 7.29037 3.69159 7.18537C3.70483 6.73309 3.72646 6.28099 3.74454 5.82871C3.76133 5.40967 3.80141 4.99419 3.89781 4.58469C4.10366 3.71038 4.43239 2.89119 4.98692 2.17736C5.92873 0.965473 7.20094 0.328425 8.68441 0.0637048C8.82164 0.0392317 8.96372 0.0493198 9.09667 0C9.373 0 9.64933 0 9.92566 0C9.93667 0.0293303 9.9624 0.0188686 9.98272 0.0201763C10.285 0.0371767 10.5842 0.0795843 10.8801 0.141421C13.6867 0.726533 15.3184 3.07408 15.4402 5.55614C15.4676 6.1136 15.4616 6.67051 15.4555 7.22778C15.4545 7.30363 15.4697 7.32922 15.5513 7.32829C15.7676 7.32549 15.9845 7.32829 16.2006 7.3395C16.8718 7.37425 17.4681 7.613 17.9701 8.05576C18.6706 8.67375 19.0006 9.46324 18.9997 10.3983C18.9969 13.2115 18.9988 16.025 18.9986 18.8383C18.9986 18.9842 18.9939 19.1296 18.9825 19.2753C18.8824 20.5454 17.9585 21.6256 16.7202 21.9124C16.5632 21.9488 16.4029 21.971 16.244 21.9998C16.2142 21.9998 16.1844 21.9998 16.1543 21.9998C16.1355 21.9654 16.1023 21.9768 16.0743 21.9768C15.6009 21.977 15.1273 21.9781 14.6539 21.9789C13.7278 21.9787 12.8016 21.9783 11.8753 21.978C10.0972 21.9781 8.31913 21.9781 6.54106 21.9783C6.2196 21.9791 5.89796 21.9796 5.5765 21.9804C5.08369 21.9806 4.5907 21.9808 4.09788 21.9811C3.7024 21.9793 3.30692 21.9772 2.91144 21.9759C2.88739 21.9759 2.85737 21.9653 2.84506 21.9998C2.80777 21.9998 2.77029 21.9998 2.733 21.9998C2.71697 21.961 2.68173 21.9785 2.65544 21.9757C1.38136 21.8429 0.357886 20.9335 0.0729766 19.6829C0.0444484 19.5577 0.0509744 19.4262 -0.000488281 19.3059C-0.000488281 19.2685 -0.000488281 19.231 -0.000488281 19.1936C0.034939 19.1757 0.0235649 19.1423 0.0235649 19.1142C0.0228191 18.3253 0.0215139 17.5364 0.0202087 16.7474C0.0207681 15.6232 0.0215139 14.4991 0.0217004 13.3748C0.0217004 12.9266 0.0203951 12.4785 0.0196493 12.0303C0.0192764 11.7011 0.0189035 11.372 0.0185306 11.0428C0.0203951 10.7812 0.0222597 10.5199 0.0233785 10.2583C0.0237514 10.2346 0.0334473 10.2049 -0.000115363 10.1918ZM9.48991 8.90241C7.33537 8.90241 5.18103 8.90335 3.02649 8.90129C2.71566 8.90092 2.42665 8.96724 2.17083 9.14733C1.7444 9.44736 1.5695 9.87274 1.5695 10.3828C1.56968 12.4889 1.5695 14.5953 1.5695 16.7015C1.5695 17.4758 1.56707 18.2504 1.57174 19.0247C1.57546 19.6452 1.97225 20.1772 2.55232 20.3526C2.7399 20.4094 2.93326 20.4229 3.12792 20.4229C6.59681 20.4223 10.0655 20.4214 13.5344 20.4214C14.3483 20.4214 15.1624 20.4281 15.9763 20.4261C16.7933 20.424 17.4295 19.7946 17.4299 18.9773C17.4316 16.0816 17.4293 13.1861 17.4239 10.2905C17.4234 9.94784 17.3037 9.63829 17.0794 9.37637C16.7779 9.02403 16.3816 8.90129 15.931 8.90167C13.7841 8.90372 11.637 8.90241 9.48991 8.90241ZM9.5658 7.31671C10.9655 7.31671 12.3653 7.3154 13.7652 7.31951C13.867 7.31988 13.8918 7.28943 13.8909 7.19472C13.8881 6.86947 13.8894 6.54403 13.8944 6.21859C13.9013 5.7835 13.8784 5.35139 13.7798 4.92638C13.5245 3.82752 12.9687 2.92444 12.0209 2.29487C11.0711 1.6638 10.0206 1.48483 8.89939 1.63278C7.0583 1.87583 5.58713 3.33992 5.35574 5.33401C5.28376 5.95537 5.28824 6.58065 5.26213 7.20424C5.25822 7.29915 5.28544 7.31914 5.37755 7.31895C6.77357 7.31559 8.16959 7.31671 9.5658 7.31671Z" fill="#010101"/>
<path opacity="0.75" d="M8.71583 16.3546C8.71583 15.7939 8.71304 15.2335 8.71807 14.6728C8.71919 14.5527 8.68208 14.4711 8.58606 14.3973C7.88534 13.8596 7.86838 13.0576 8.19561 12.4407C8.47045 11.9225 9.12996 11.6096 9.72309 11.7006C10.3483 11.7966 10.8707 12.2866 10.9774 12.8968C11.085 13.512 10.9049 14.027 10.4018 14.4115C10.3183 14.4754 10.2854 14.546 10.286 14.6484C10.2892 15.3515 10.2871 16.0547 10.2897 16.7577C10.2909 17.0794 10.1803 17.3339 9.90022 17.5151C9.43855 17.8142 8.70688 17.4607 8.73094 16.8926C8.73858 16.7134 8.73206 16.5337 8.73206 16.3542C8.72665 16.3546 8.72124 16.3546 8.71583 16.3546Z" fill="#010101"/>
</g>
<defs>
<clipPath id="clip0_459_29">
<rect width="19" height="22" fill="white"/>
</clipPath>
</defs>
</svg>
