<?xml version="1.0" encoding="utf-8"?>
<!-- Generator: Adobe Illustrator 26.0.1, SVG Export Plug-In . SVG Version: 6.00 Build 0)  -->
<svg version="1.1" id="Layer_1" xmlns="http://www.w3.org/2000/svg" xmlns:xlink="http://www.w3.org/1999/xlink" x="0px" y="0px"
	 viewBox="0 0 20.2 15.15" style="enable-background:new 0 0 20.2 15.15;" xml:space="preserve">
<style type="text/css">
	.st0{fill:#232322;}
	.st1{fill:#222220;}
</style>
<g>
	<path class="st0" d="M10.11,0c2.24,0,4.49,0,6.73,0c1.13,0,2.05,0.43,2.73,1.34c0.39,0.52,0.61,1.1,0.62,1.75
		C20.2,4.66,20.2,6.23,20.2,7.8c0,1.36,0.01,2.72,0,4.08c-0.01,1.55-1.03,2.83-2.51,3.18c-0.29,0.07-0.58,0.09-0.87,0.09
		c-4.48,0-8.96,0-13.44,0c-1.75,0-3.07-1.11-3.35-2.8C0.01,12.18,0,12.01,0,11.84C0,8.99,0,6.15,0,3.31c0-1.58,1.02-2.88,2.51-3.22
		C2.81,0.02,3.12,0,3.43,0C5.65,0,7.88,0,10.11,0z M10.09,14.19c2.24,0,4.49,0,6.73,0c1.45,0,2.41-0.97,2.42-2.42
		c0-2.8,0-5.59,0-8.39c0-1.46-0.96-2.42-2.42-2.42c-4.48,0-8.96,0-13.44,0c-0.15,0-0.3,0-0.45,0.02C1.77,1.13,0.96,2.09,0.96,3.32
		c0,2.83,0,5.67,0,8.5c0,0.13,0,0.25,0.02,0.38c0.15,1.15,1.11,1.98,2.32,1.98C5.56,14.19,7.83,14.19,10.09,14.19z"/>
	<path class="st1" d="M2.41,12.37c-0.01-0.18,0.11-0.29,0.22-0.4c1.15-1.08,2.29-2.17,3.44-3.25c0.28-0.27,0.56-0.54,0.85-0.8
		c0.14-0.12,0.12-0.19,0-0.31C5.5,6.24,4.09,4.86,2.68,3.48C2.61,3.41,2.55,3.35,2.48,3.29C2.3,3.08,2.29,2.83,2.47,2.64
		c0.2-0.21,0.44-0.24,0.66-0.07C3.3,2.71,3.45,2.87,3.61,3.02c2.11,2.05,4.21,4.1,6.31,6.16c0.15,0.15,0.22,0.14,0.37,0
		c2.21-2.16,4.42-4.31,6.63-6.47c0.3-0.3,0.56-0.32,0.8-0.07c0.2,0.21,0.2,0.45-0.02,0.67c-0.32,0.32-0.65,0.64-0.97,0.96
		c-1.13,1.11-2.27,2.22-3.41,3.32c-0.13,0.13-0.14,0.2,0,0.33c1.43,1.35,2.86,2.7,4.29,4.05c0.35,0.33,0.28,0.76-0.15,0.89
		c-0.22,0.07-0.38-0.04-0.52-0.17c-0.67-0.64-1.35-1.28-2.02-1.91c-0.75-0.72-1.51-1.43-2.26-2.15c-0.17-0.17-0.27-0.14-0.42,0.01
		c-0.56,0.56-1.13,1.11-1.7,1.66c-0.32,0.31-0.55,0.31-0.87,0C9.09,9.73,8.51,9.17,7.93,8.6c-0.12-0.12-0.19-0.13-0.32,0
		c-1.35,1.29-2.71,2.58-4.06,3.86c-0.12,0.11-0.24,0.23-0.37,0.33c-0.16,0.12-0.33,0.12-0.5,0.02C2.5,12.71,2.42,12.57,2.41,12.37z"
		/>
</g>
</svg>
