<?xml version="1.0" encoding="utf-8"?>
<!-- Generator: Adobe Illustrator 26.0.1, SVG Export Plug-In . SVG Version: 6.00 Build 0)  -->
<svg version="1.1" id="Layer_1" xmlns="http://www.w3.org/2000/svg" xmlns:xlink="http://www.w3.org/1999/xlink" x="0px" y="0px"
	 viewBox="0 0 440.01 299.65" style="enable-background:new 0 0 440.01 299.65;" xml:space="preserve">
<style type="text/css">
	.st0{fill:#7FA39F;}
</style>
<path class="st0" d="M219.77,298.93c-69.17,0-138.33,0-207.5,0C3.46,298.93,1,296.56,1,287.81c-0.02-92-0.02-184.01,0-276.01
	C1,3.02,3.45,0.64,12.22,0.64c138.5,0,277,0,415.5,0c8.81,0,11.27,2.36,11.27,11.12c0.02,92,0.02,184.01,0,276.01
	c0,8.78-2.45,11.16-11.22,11.16C358.44,298.93,289.11,298.93,219.77,298.93z M24.77,14.03c1.95,1.74,3.35,3.05,4.82,4.28
	C91.22,69.87,152.9,121.39,214.41,173.1c4.13,3.47,6.38,3.79,10.74,0.12c50.99-42.89,102.22-85.51,153.37-128.21
	c12.12-10.12,24.22-20.27,37.02-30.98C284.91,14.03,155.2,14.03,24.77,14.03z M418.24,285.66c-24.33-20.52-47.84-40.33-71.34-60.16
	c-26.03-21.96-52.1-43.87-78.03-65.94c-2.8-2.38-4.41-2.34-7.18,0.06c-11.87,10.28-23.96,20.3-36.02,30.36
	c-4.85,4.05-6.86,4.04-11.65,0.04c-11.79-9.86-23.63-19.67-35.24-29.75c-2.72-2.36-4.13-2.16-6.79,0.09
	c-47.7,40.36-95.52,80.6-143.3,120.87c-1.52,1.28-2.96,2.64-4.97,4.44C155.53,285.66,286.33,285.66,418.24,285.66z M14.44,276.24
	c50.65-42.71,100.6-84.82,150.85-127.2C114.89,106.87,64.95,65.08,14.44,22.8C14.44,107.75,14.44,191.57,14.44,276.24z
	 M275.45,148.25c50.09,42.23,99.79,84.12,150,126.45c0-84.29,0-167.57,0-251.65C375.19,65,325.49,106.48,275.45,148.25z"/>
</svg>
