<?xml version="1.0" encoding="utf-8"?>
<!-- Generator: Adobe Illustrator 26.0.1, SVG Export Plug-In . SVG Version: 6.00 Build 0)  -->
<svg version="1.1" id="Layer_1" xmlns="http://www.w3.org/2000/svg" xmlns:xlink="http://www.w3.org/1999/xlink" x="0px" y="0px"
	 viewBox="0 0 27.72 19.87" style="enable-background:new 0 0 27.72 19.87;" xml:space="preserve">
<style type="text/css">
	.st0{fill:#FFFFFF;}
</style>
<g>
	<path class="st0" d="M13.88,8.5c3.98,0,7.96,0,11.95,0c0.25,0,0.5,0,0.75,0.08c0.69,0.21,1.1,0.81,1.04,1.52
		c-0.06,0.65-0.6,1.18-1.28,1.26c-0.2,0.02-0.41,0.04-0.61,0.04c-7.91,0-15.81,0-23.72,0c-0.26,0-0.52,0-0.78-0.07
		c-0.75-0.21-1.19-0.81-1.11-1.52c0.08-0.72,0.68-1.26,1.44-1.3C1.7,8.49,1.84,8.5,1.99,8.5C5.95,8.5,9.91,8.5,13.88,8.5z"/>
	<path class="st0" d="M13.88,0.05c4.02,0,8.04,0,12.06,0c0.52,0,0.98,0.13,1.33,0.53c0.72,0.82,0.26,2.1-0.84,2.32
		c-0.2,0.04-0.4,0.06-0.61,0.06c-7.98,0-15.97,0-23.95,0c-0.25,0-0.5-0.02-0.74-0.1C0.46,2.64,0.07,2.09,0.1,1.42
		C0.14,0.77,0.59,0.26,1.27,0.1c0.19-0.04,0.38-0.05,0.58-0.05C5.85,0.05,9.87,0.05,13.88,0.05z"/>
	<path class="st0" d="M13.85,19.75c-4.01,0-8.02,0-12.03,0c-0.24,0-0.48-0.03-0.71-0.11c-0.66-0.23-1.04-0.77-1-1.44
		c0.04-0.65,0.53-1.19,1.2-1.31c0.19-0.03,0.39-0.05,0.58-0.05c7.98,0,15.97,0,23.95,0c0.25,0,0.5,0.02,0.75,0.1
		c0.68,0.22,1.06,0.74,1.03,1.43c-0.02,0.63-0.47,1.15-1.12,1.31c-0.2,0.05-0.4,0.06-0.61,0.06C21.87,19.75,17.86,19.75,13.85,19.75
		z"/>
</g>
</svg>
