<?xml version="1.0" encoding="utf-8"?>
<!-- Generator: Adobe Illustrator 26.0.1, SVG Export Plug-In . SVG Version: 6.00 Build 0)  -->
<svg version="1.1" id="Layer_1" xmlns="http://www.w3.org/2000/svg" xmlns:xlink="http://www.w3.org/1999/xlink" x="0px" y="0px"
	 viewBox="0 0 137.79 137.76" style="enable-background:new 0 0 137.79 137.76;" xml:space="preserve">
<style type="text/css">
	.st0{fill:#7FA39F;}
</style>
<path class="st0" d="M68.93,0c37.91-0.04,68.9,31.03,68.86,69.04c-0.04,37.72-30.93,68.62-68.68,68.72
	C31.11,137.86-0.05,106.84,0,68.97C0.05,30.9,30.89,0.04,68.93,0z M68.63,132.05c34.77,0.13,63.2-27.84,63.43-62.42
	C132.3,34.5,104.43,5.95,69.65,5.71C34.31,5.46,5.8,33.52,5.71,68.62C5.62,103.62,33.69,131.92,68.63,132.05z"/>
<path class="st0" d="M54.36,77.2c-15.58-15.35-17.11-31.92-4.27-43.8c11.41-10.57,29.03-9.51,39.19,2.24
	c8.96,10.37,10.29,29.18-6.31,40.95c0.6,1.71,2.38,1.59,3.62,2.17c10.57,5.02,17.91,13.02,22.15,23.87c0.75,1.92,2.1,4.36-0.77,5.61
	c-2.95,1.28-3.51-1.26-4.35-3.29C97.45,90.03,86.45,81.32,70.2,80.7c-16.88-0.64-28.8,7.52-36.01,22.69
	c-0.86,1.82-1.5,4.17-4.12,3.2c-2.93-1.08-1.9-3.42-1.03-5.45C34.04,89.6,42.66,81.82,54.36,77.2z M65.9,74.96
	c1.65,3.07,3.31,3.07,4.98,0.02c1.28-0.34,2.58-0.64,3.85-1.03c10.76-3.29,17.14-13.85,15.06-24.87
	c-2.04-10.79-12.12-18.21-23.42-17.23c-10.66,0.92-19.18,10.27-19.38,21.16C46.79,63.39,54.67,73.18,65.9,74.96z"/>
<path class="st0" d="M65.9,74.96c1.66,0.01,3.32,0.01,4.98,0.02C69.21,78.02,67.55,78.03,65.9,74.96z"/>
</svg>
