<?xml version="1.0" encoding="utf-8"?>
<!-- Generator: Adobe Illustrator 26.0.1, SVG Export Plug-In . SVG Version: 6.00 Build 0)  -->
<svg version="1.1" id="Layer_1" xmlns="http://www.w3.org/2000/svg" xmlns:xlink="http://www.w3.org/1999/xlink" x="0px" y="0px"
	 viewBox="0 0 20.2 20.19" style="enable-background:new 0 0 20.2 20.19;" xml:space="preserve">
<style type="text/css">
	.st0{fill:#FFFFFF;}
</style>
<path class="st0" d="M15.34,20.01c-0.98-0.01-1.78-0.24-2.57-0.53c-1.11-0.41-2.23-0.77-3.26-1.36c-1.57-0.9-2.92-2.06-4.19-3.33
	c-1.23-1.24-2.37-2.55-3.23-4.09C1.28,9.25,0.72,7.68,0.31,6.06c-0.33-1.33-0.04-2.59,0.62-3.77c0.04-0.07,0.09-0.14,0.12-0.21
	c0.66-1.36,1.84-1.83,3.26-1.9C4.63,0.16,4.84,0.3,4.99,0.56C5.35,1.19,5.7,1.83,6.06,2.47c0.32,0.57,0.63,1.15,1.01,1.69
	c0.08,0.11,0.14,0.22,0.2,0.34c0.19,0.33,0.16,0.64-0.08,0.93C6.89,5.8,6.53,6.12,6.15,6.4C5.83,6.65,5.52,6.9,5.24,7.19
	c-0.46,0.47-0.5,0.69-0.18,1.26c0.3,0.53,0.61,1.05,0.93,1.56c1.24,1.96,2.9,3.49,4.92,4.63c0.36,0.2,0.69,0.44,1.07,0.6
	c0.35,0.15,0.63,0.09,0.9-0.16c0.37-0.35,0.68-0.74,0.99-1.13c0.25-0.33,0.53-0.63,0.84-0.89c0.38-0.31,0.64-0.36,1.05-0.09
	c1,0.65,2.04,1.21,3.08,1.79c0.3,0.17,0.61,0.32,0.89,0.52c0.2,0.15,0.3,0.33,0.29,0.58c-0.04,0.7-0.19,1.37-0.47,2
	c-0.14,0.33-0.41,0.57-0.7,0.79C17.78,19.46,16.6,19.99,15.34,20.01z"/>
</svg>
