<?xml version="1.0" encoding="utf-8"?>
<!-- Generator: Adobe Illustrator 26.0.1, SVG Export Plug-In . SVG Version: 6.00 Build 0)  -->
<svg version="1.1" id="Layer_1" xmlns="http://www.w3.org/2000/svg" xmlns:xlink="http://www.w3.org/1999/xlink" x="0px" y="0px"
	 viewBox="0 0 20.05 19.11" style="enable-background:new 0 0 20.05 19.11;" xml:space="preserve">
<style type="text/css">
	.st0{fill:#FED500;}
</style>
<path class="st0" d="M16.36,17.21c0.04,0.23,0.05,0.46,0.11,0.68c0.14,0.55-0.03,1.08-0.69,1.21c-0.24,0.01-0.44-0.1-0.64-0.21
	c-0.04-0.02-0.08-0.04-0.13-0.04c-0.27-0.2-0.58-0.33-0.87-0.48c-0.19-0.1-0.38-0.22-0.58-0.31c-0.36-0.17-0.68-0.4-1.06-0.53
	c-0.01-0.01-0.01-0.03-0.02-0.04c-0.52-0.27-1.04-0.55-1.57-0.82c-0.22-0.12-0.45-0.23-0.66-0.37c-0.2-0.13-0.36-0.08-0.52,0.07
	c-0.19,0.05-0.35,0.17-0.53,0.26c-0.33,0.17-0.66,0.32-0.98,0.51C8,17.28,7.75,17.36,7.56,17.53c-0.03,0.01-0.07,0-0.1,0.02
	c-0.51,0.27-1.03,0.55-1.54,0.82c-0.3,0.16-0.61,0.3-0.9,0.48c-0.24,0.1-0.46,0.26-0.74,0.25c-0.31-0.08-0.58-0.22-0.7-0.55
	c-0.07-0.2-0.05-0.4-0.01-0.6c0.05-0.25,0.08-0.49,0.12-0.74c0.05-0.3,0.11-0.6,0.16-0.91c0.01-0.22,0.12-0.43,0.09-0.66
	c0.09-0.29,0.13-0.6,0.16-0.9c0.05-0.19,0.11-0.37,0.09-0.57c0.02-0.06,0.06-0.13,0.07-0.19c0.07-0.49,0.15-0.97,0.25-1.45
	c0.04-0.2,0-0.36-0.17-0.52C3,10.72,1.67,9.41,0.34,8.11C0.12,7.9-0.01,7.65,0,7.34c0.06-0.13,0.11-0.27,0.17-0.4
	c0.27-0.25,0.61-0.31,0.96-0.35c0.29-0.04,0.6-0.04,0.88-0.15C2.23,6.45,2.43,6.4,2.63,6.35C2.99,6.32,3.35,6.29,3.7,6.19
	C3.9,6.2,4.09,6.18,4.27,6.11c0.39-0.02,0.77-0.07,1.15-0.16c0.36-0.01,0.7-0.09,1.05-0.14c0.17-0.02,0.25-0.1,0.27-0.27
	c0.14-0.2,0.25-0.42,0.33-0.66c0.17-0.26,0.3-0.54,0.41-0.83C7.78,3.52,8.03,2.96,8.29,2.4C8.33,2.34,8.4,2.29,8.39,2.2
	C8.52,2.01,8.61,1.79,8.7,1.58c0.14-0.27,0.27-0.55,0.41-0.82C9.13,0.68,9.22,0.64,9.2,0.55c0.13-0.19,0.24-0.41,0.48-0.5
	c0.04-0.02,0.09-0.03,0.13-0.04c0.35-0.03,0.68,0.01,0.9,0.34c0.04,0.07,0.04,0.16,0.13,0.2c-0.01,0.09,0.07,0.13,0.09,0.21
	c-0.01,0.07,0.05,0.11,0.08,0.16c0.24,0.5,0.49,0.99,0.74,1.49c0.12,0.28,0.25,0.56,0.41,0.82c0.08,0.22,0.18,0.44,0.32,0.63
	c0,0.08,0.04,0.14,0.09,0.19c0.11,0.29,0.24,0.56,0.41,0.82c0.08,0.24,0.19,0.47,0.33,0.69c0.02,0.11,0.05,0.21,0.18,0.23
	c0.5,0.08,1,0.15,1.5,0.23c0.26,0.01,0.51,0.12,0.78,0.09c0.29,0.11,0.61,0.08,0.9,0.15c0.25,0,0.49,0.12,0.74,0.09
	c0.31,0.09,0.63,0.09,0.94,0.16c0.19,0,0.37,0.07,0.56,0.08c0.36,0.03,0.69,0.1,0.96,0.35c0.06,0.13,0.11,0.27,0.17,0.4
	c0.01,0.32-0.12,0.58-0.34,0.79c-1.33,1.29-2.66,2.59-4,3.88c-0.18,0.18-0.2,0.35-0.16,0.57c0.08,0.45,0.16,0.9,0.24,1.35
	c0.06,0.27,0.07,0.56,0.16,0.82c-0.03,0.21,0.09,0.41,0.09,0.62c0.09,0.42,0.12,0.85,0.24,1.27C16.24,16.83,16.34,17.02,16.36,17.21
	z"/>
</svg>
