<?xml version="1.0" encoding="utf-8"?>
<!-- Generator: Adobe Illustrator 26.0.1, SVG Export Plug-In . SVG Version: 6.00 Build 0)  -->
<svg version="1.1" id="Layer_1" xmlns="http://www.w3.org/2000/svg" xmlns:xlink="http://www.w3.org/1999/xlink" x="0px" y="0px"
	 viewBox="0 0 20.28 20.28" style="enable-background:new 0 0 20.28 20.28;" xml:space="preserve">
<style type="text/css">
	.st0{fill:#020202;}
	.st1{fill:#010101;}
	.st2{fill:#050505;}
	.st3{fill:#060606;}
	.st4{fill:#030303;}
	.st5{fill:#040404;}
</style>
<path class="st0" d="M20.1,5.41c-0.15,0.06-0.13,0.21-0.17,0.33c-0.17,0.51-0.43,0.97-0.81,1.35C18.15,8.06,17.2,9.04,16.21,10
	c-1.02,1-2.57,1.24-3.8,0.63c0.02-0.15,0.15-0.21,0.23-0.29c1.51-1.51,3.02-3.02,4.53-4.54c0.74-0.74,0.73-1.4,0-2.13
	c-0.24-0.24-0.48-0.48-0.72-0.72c-0.65-0.63-1.33-0.63-1.97,0.01c-1.51,1.5-3,3-4.5,4.5C9.87,7.56,9.78,7.7,9.63,7.89
	c-0.5-1.37-0.41-2.59,0.49-3.6c1.02-1.14,2.11-2.22,3.24-3.26c1.15-1.07,2.97-1.13,4.24-0.18c0.7,0.52,1.28,1.17,1.85,1.83
	c0.35,0.41,0.43,0.94,0.66,1.4C20.1,4.52,20.1,4.97,20.1,5.41z"/>
<path class="st1" d="M3.99,20.1c-0.05-0.14-0.19-0.13-0.29-0.16c-0.3-0.08-0.59-0.2-0.83-0.38c-0.83-0.62-1.6-1.32-2.16-2.18
	c-0.83-1.27-0.67-2.98,0.38-4.08c0.99-1.05,2.01-2.08,3.07-3.06c1.04-0.97,2.29-1.1,3.63-0.66C7.74,9.76,7.59,9.84,7.48,9.94
	C6,11.44,4.51,12.93,3.02,14.42C2.3,15.14,2.29,15.8,3,16.52c0.23,0.23,0.46,0.46,0.69,0.69c0.7,0.7,1.37,0.7,2.07,0.01
	c1.52-1.52,3.05-3.04,4.56-4.57c0.3-0.31,0.39-0.2,0.48,0.13c0.35,1.27,0.15,2.43-0.77,3.4c-0.97,1.03-2,2.01-2.99,3.01
	c-0.5,0.5-1.16,0.69-1.8,0.92C4.82,20.1,4.41,20.1,3.99,20.1z"/>
<path class="st2" d="M14.13,18.71c0.06,0.19-0.07,0.21-0.18,0.24c-0.78,0.21-0.78,0.21-0.95-0.58c-0.15-0.73-0.29-1.47-0.46-2.19
	c-0.06-0.25,0-0.29,0.23-0.33c0.75-0.15,0.74-0.16,0.89,0.57C13.81,17.18,13.97,17.96,14.13,18.71z"/>
<path class="st3" d="M1.04,5.78c0.59,0.17,1.18,0.34,1.77,0.51C3.1,6.37,3.37,6.48,3.66,6.53C4,6.58,4.04,6.72,3.94,7.03
	c-0.2,0.59-0.18,0.6-0.79,0.43c-0.73-0.21-1.46-0.43-2.2-0.62C0.66,6.77,0.57,6.68,0.7,6.4c0.07-0.14,0.08-0.31,0.13-0.46
	C0.87,5.85,0.89,5.72,1.04,5.78z"/>
<path class="st2" d="M16.51,12.11c0.97,0.26,1.89,0.5,2.81,0.75c0.14,0.04,0.18,0.11,0.15,0.26c-0.12,0.78-0.16,0.82-0.9,0.62
	c-0.74-0.19-1.47-0.41-2.21-0.58c-0.24-0.06-0.29-0.13-0.21-0.35c0.06-0.17,0.11-0.34,0.14-0.51
	C16.32,12.12,16.39,12.05,16.51,12.11z"/>
<path class="st4" d="M17.69,16.56c-0.31,0.28-0.52,0.5-0.77,0.68c-0.18,0.13-0.25-0.1-0.34-0.18c-0.63-0.6-1.24-1.22-1.88-1.81
	c-0.19-0.18-0.16-0.27,0-0.44c0.51-0.52,0.51-0.52,1.04-0.01c0.53,0.51,1.06,1.02,1.59,1.53C17.41,16.4,17.51,16.44,17.69,16.56z"/>
<path class="st5" d="M7.04,3.68C6.86,3.73,6.85,3.59,6.83,3.49C6.6,2.58,6.38,1.67,6.14,0.77c-0.05-0.17,0-0.25,0.16-0.28
	c0.01,0,0.03-0.01,0.04-0.01c0.75-0.24,0.75-0.24,0.94,0.54c0.18,0.71,0.34,1.42,0.54,2.12C7.9,3.4,7.85,3.51,7.59,3.55
	C7.4,3.58,7.22,3.63,7.04,3.68z"/>
<path d="M5.42,4.53C4.7,5.3,4.7,5.3,4.01,4.6C3.54,4.14,3.08,3.66,2.59,3.2c-0.2-0.19-0.19-0.29,0-0.47c0.51-0.49,0.5-0.5,1.01,0
	C4.21,3.34,4.82,3.93,5.42,4.53z"/>
</svg>
