<?xml version="1.0" encoding="utf-8"?>
<!-- Generator: Adobe Illustrator 26.0.1, SVG Export Plug-In . SVG Version: 6.00 Build 0)  -->
<svg version="1.1" id="Layer_1" xmlns="http://www.w3.org/2000/svg" xmlns:xlink="http://www.w3.org/1999/xlink" x="0px" y="0px"
	 viewBox="0 0 24.56 23.98" style="enable-background:new 0 0 24.56 23.98;" xml:space="preserve">
<style type="text/css">
	.st0{fill:#FFFFFF;}
</style>
<path class="st0" d="M10.31,0.26c0.09,0,0.19,0,0.28,0c0.02,0.06,0.07,0.04,0.12,0.05c0.7,0.04,1.38,0.16,2.05,0.36
	c6.37,1.87,9.07,9.28,5.4,14.83c-0.08,0.12-0.08,0.18,0.03,0.28c1.69,1.51,3.37,3.03,5.06,4.54c0.44,0.39,0.89,0.78,1.05,1.38
	c0,0.22,0,0.44,0,0.66c-0.08,0.05-0.06,0.13-0.09,0.2c-0.21,0.57-0.6,0.93-1.18,1.09c-0.08,0.02-0.17-0.03-0.23,0.07
	c-0.16,0-0.31,0-0.47,0c-0.02-0.08-0.1-0.06-0.15-0.08c-0.28-0.08-0.52-0.22-0.73-0.41c-1.87-1.68-3.74-3.36-5.61-5.05
	c-0.12-0.1-0.19-0.13-0.33-0.03c-2.33,1.53-4.86,2.01-7.58,1.44c-3.74-0.79-6.78-3.92-7.47-7.66c-0.06-0.32-0.05-0.66-0.18-0.97
	c0-0.58,0-1.16,0-1.74c0.07-0.03,0.04-0.09,0.05-0.14C0.37,8.74,0.4,8.4,0.47,8.06C1.34,4.02,4.52,1.02,8.6,0.39
	c0.26-0.04,0.52-0.02,0.77-0.13c0.13,0,0.25,0,0.38,0C9.93,0.34,10.12,0.33,10.31,0.26z M2.46,10.03c-0.01,4.18,3.36,7.58,7.54,7.6
	c4.19,0.02,7.6-3.36,7.62-7.52c0.02-4.2-3.36-7.62-7.56-7.64C5.88,2.45,2.48,5.84,2.46,10.03z"/>
</svg>
