<?xml version="1.0" encoding="utf-8"?>
<!-- Generator: Adobe Illustrator 26.0.1, SVG Export Plug-In . SVG Version: 6.00 Build 0)  -->
<svg version="1.1" id="Layer_1" xmlns="http://www.w3.org/2000/svg" xmlns:xlink="http://www.w3.org/1999/xlink" x="0px" y="0px"
	 viewBox="0 0 19.62 21.57" style="enable-background:new 0 0 19.62 21.57;" xml:space="preserve">
<style type="text/css">
	.st0{fill:#020202;}
</style>
<path class="st0" d="M6.09,12.51c-1.87-1.38-2.9-3.17-2.94-5.47C3.13,5.19,3.8,3.58,5.12,2.26c2.62-2.63,6.95-2.56,9.46,0.06
	c2.68,2.79,2.62,7.57-1.04,10.18c0.16,0.08,0.31,0.15,0.45,0.22c3.3,1.76,5.09,4.49,5.33,8.23c0.02,0.24-0.06,0.3-0.29,0.29
	c-0.46-0.02-0.91-0.02-1.37,0c-0.21,0.01-0.25-0.06-0.26-0.26c-0.07-1.84-0.7-3.46-1.94-4.82c-1.37-1.51-3.08-2.34-5.12-2.5
	c-3.08-0.24-6.07,1.49-7.39,4.28C2.5,18.92,2.25,19.93,2.21,21c-0.01,0.19-0.06,0.24-0.25,0.24c-0.49-0.01-0.97-0.01-1.46,0
	c-0.17,0-0.21-0.05-0.21-0.22c0.13-2.93,1.32-5.32,3.58-7.18C4.54,13.31,5.27,12.87,6.09,12.51z M9.8,11.72
	c2.65,0,4.76-2.1,4.76-4.74c0.01-2.63-2.11-4.76-4.74-4.77c-2.63,0-4.76,2.11-4.77,4.75C5.04,9.59,7.17,11.72,9.8,11.72z"/>
</svg>
