<?xml version="1.0" encoding="utf-8"?>
<!-- Generator: Adobe Illustrator 26.0.1, SVG Export Plug-In . SVG Version: 6.00 Build 0)  -->
<svg version="1.1" id="Layer_1" xmlns="http://www.w3.org/2000/svg" xmlns:xlink="http://www.w3.org/1999/xlink" x="0px" y="0px"
	 viewBox="0 0 169.59 169.59" style="enable-background:new 0 0 169.59 169.59;" xml:space="preserve">
<style type="text/css">
	.st0{fill:#D9D7D8;stroke:#FFFFFF;stroke-width:2;stroke-miterlimit:10;}
	.st1{fill:#FFFFFF;}
</style>
<circle class="st0" cx="84.79" cy="84.79" r="81.79"/>
<path class="st1" d="M32.66,147.25c1.23-1.29,2.74-2.16,4.28-3c7.59-4.15,15.16-8.34,22.79-12.41c4.17-2.23,6.25-5.55,6.11-10.3
	c-0.07-2.6-0.03-5.21,0-7.81c0.01-0.72-0.15-1.3-0.59-1.91c-4.18-5.65-7.3-11.81-9.02-18.65c-0.16-0.63-0.46-1.13-1-1.56
	c-2.07-1.67-3.04-3.91-3.06-6.55c-0.03-3.51-0.02-7.01,0-10.52c0.01-2.04,0.62-3.9,2-5.4c0.64-0.7,0.79-1.42,0.78-2.3
	c-0.06-5.31-0.16-10.62-0.09-15.93c0.13-9.3,4.32-16.29,12.96-19.75c11.55-4.64,23.39-4.62,34.89,0.28
	c8.32,3.54,12.68,11.45,12.32,20.5c-0.2,5.15-0.05,10.3-0.09,15.46c0,0.63,0.2,1.1,0.62,1.55c1.5,1.64,2.16,3.62,2.16,5.83
	c0,3.4,0.03,6.8-0.01,10.2c-0.04,3.56-1.62,6.22-4.89,7.73c-0.77,0.35-1.11,0.87-1.36,1.6c-2.17,6.39-5.29,12.27-9.53,17.53
	c-0.46,0.58-0.64,1.17-0.64,1.9c0.02,2.92-0.02,5.84,0.02,8.77c0.06,4.33,2.04,7.48,5.92,9.42c8.4,4.2,16.8,8.4,25.2,12.61
	c1.62,0.81,3.19,1.68,4.48,2.99c-0.16,0.48-0.55,0.76-0.93,1.06c-12.02,9.58-25.65,15.39-40.91,17.32
	c-0.58,0.07-1.18,0.06-1.53,0.65c-5.74,0-11.48,0-17.21,0c-0.35-0.59-0.95-0.56-1.54-0.65c-1.89-0.28-3.78-0.55-5.66-0.92
	c-10.18-1.99-19.64-5.82-28.34-11.45C37.93,151.67,34.97,149.87,32.66,147.25z"/>
</svg>
